<?xml version="1.0" encoding="UTF-8"?>
<!-- IBM Plex Sans SemiBold letterforms converted to paths for consistent rendering. -->
<svg width="200" height="64" xmlns="http://www.w3.org/2000/svg" viewBox="0 0 200 64">
    <path d="M27.69 48H13.74V43.34H17.79V21.95H13.74V17.29H27.69V21.95H23.59V43.34H27.69V48M33.63 48V17.29H47.84Q49.73 17.29 51.25 17.86Q52.77 18.43 53.82 19.44Q54.88 20.46 55.43 21.93Q55.98 23.4 55.98 25.16Q55.98 26.92 55.52 28.13Q55.05 29.34 54.28 30.14Q53.51 30.93 52.52 31.32Q51.53 31.72 50.48 31.76V32.03Q51.49 32.03 52.66 32.42Q53.82 32.82 54.81 33.68Q55.8 34.54 56.46 35.88Q57.12 37.22 57.12 39.2Q57.12 41.05 56.53 42.65Q55.93 44.26 54.88 45.45Q53.82 46.64 52.37 47.32Q50.92 48 49.2 48H33.63M39.43 34.84V43.07H47.53Q49.2 43.07 50.13 42.21Q51.05 41.36 51.05 39.73V38.23Q51.05 36.6 50.13 35.72Q49.2 34.84 47.53 34.84H39.43M39.43 22.22V30.09H46.61Q48.19 30.09 49.07 29.23Q49.95 28.38 49.95 26.84V25.47Q49.95 23.93 49.07 23.07Q48.19 22.22 46.61 22.22H39.43M85.99 48V25.96H85.81L83.43 30.84L77.14 42.46L70.85 30.84L68.47 25.96H68.3V48H62.8V17.29H69.35L77.23 32.29H77.41L85.19 17.29H91.49V48H85.99M109.09 48V17.29H120.26Q123.25 17.29 125.7 18.26Q128.14 19.22 129.88 21.14Q131.61 23.05 132.56 25.93Q133.51 28.82 133.51 32.64Q133.51 36.47 132.56 39.35Q131.61 42.24 129.88 44.15Q128.14 46.06 125.7 47.03Q123.25 48 120.26 48H109.09M114.89 42.85H120.26Q123.52 42.85 125.43 40.94Q127.35 39.02 127.35 35.06V30.22Q127.35 26.26 125.43 24.35Q123.52 22.44 120.26 22.44H114.89V42.85M139.05 48V15.44H144.68V28.82H144.86Q145.47 26.84 147.19 25.67Q148.91 24.5 151.19 24.5Q155.59 24.5 157.9 27.61Q160.21 30.71 160.21 36.47Q160.21 42.28 157.9 45.4Q155.59 48.53 151.19 48.53Q148.91 48.53 147.21 47.34Q145.52 46.15 144.86 44.17H144.68V48H139.05M149.39 43.86Q151.59 43.86 152.95 42.41Q154.32 40.96 154.32 38.5V34.54Q154.32 32.07 152.95 30.6Q151.59 29.12 149.39 29.12Q147.37 29.12 146.02 30.14Q144.68 31.15 144.68 32.82V40.12Q144.68 41.93 146.02 42.9Q147.37 43.86 149.39 43.86M186.22 43.12V48H164.92V42.63L174.56 34.18Q177.02 32.03 178.17 30.29Q179.31 28.55 179.31 26.53V25.96Q179.31 23.93 177.99 22.85Q176.67 21.78 174.78 21.78Q172.4 21.78 171.17 23.12Q169.94 24.46 169.41 26.35L164.39 24.42Q164.88 22.88 165.76 21.49Q166.64 20.1 167.98 19.05Q169.32 17.99 171.13 17.38Q172.93 16.76 175.26 16.76Q177.68 16.76 179.57 17.44Q181.47 18.12 182.76 19.36Q184.06 20.59 184.74 22.26Q185.43 23.93 185.43 25.91Q185.43 27.85 184.81 29.43Q184.19 31.02 183.14 32.45Q182.08 33.88 180.67 35.17Q179.27 36.47 177.68 37.79L171.21 43.12H186.22Z" fill="#3387c5"/>
</svg>
