<?xml version="1.0" encoding="UTF-8"?>
<svg id="Layer_1" data-name="Layer 1" xmlns="http://www.w3.org/2000/svg" viewBox="0 0 16 16">
  <defs>
    <style>
      .cls-1 {
        fill: #338ecc;
      }
    </style>
  </defs>
  <path class="cls-1" d="m11.5,10c1.38,0,2.5,1.12,2.5,2.5s-1.12,2.5-2.5,2.5-2.5-1.12-2.5-2.5,1.12-2.5,2.5-2.5m0-1c-1.93,0-3.5,1.57-3.5,3.5s1.57,3.5,3.5,3.5,3.5-1.57,3.5-3.5-1.57-3.5-3.5-3.5h0Z"/>
  <path class="cls-1" d="m4.52,1c1.38,0,2.5,1.12,2.5,2.5s-1.12,2.5-2.5,2.5-2.5-1.12-2.5-2.5,1.12-2.5,2.5-2.5m0-1C2.58,0,1.02,1.57,1.02,3.5s1.57,3.5,3.5,3.5,3.5-1.57,3.5-3.5S6.45,0,4.52,0h0Z"/>
  <polygon class="cls-1" points="2 9 2 10 5 10 5 16 6 16 6 9 2 9"/>
  <polygon class="cls-1" points="10 0 10 1 13 1 13 7 14 7 14 0 10 0"/>
</svg>