<?xml version="1.0" encoding="utf-8"?>
<!-- Generator: Adobe Illustrator 27.5.0, SVG Export Plug-In . SVG Version: 6.00 Build 0)  -->
<svg version="1.1" id="Layer_1" xmlns="http://www.w3.org/2000/svg" x="0px" y="0px"
     viewBox="0 0 16 16" style="enable-background:new 0 0 16 16;" xml:space="preserve">
<style type="text/css">
	.st0{enable-background:new    ;}
	.st1{fill:#338ECC;}
</style>
<g class="st0">
	<path class="st1" d="M4.8,13H3.4V4.3C3.1,4.6,2.7,4.9,2.1,5.2C1.6,5.6,1.1,5.8,0.7,6V4.6c0.8-0.4,1.4-0.8,2-1.3
		c0.6-0.5,1-1,1.2-1.5h0.9V13z"/>
	<path class="st1" d="M15.4,11.7V13H8.1c0-0.3,0-0.6,0.2-0.9c0.2-0.5,0.5-1,0.9-1.5c0.4-0.5,1-1,1.8-1.7c1.2-1,2-1.8,2.4-2.4
		C13.8,6,14,5.4,14,4.9c0-0.5-0.2-1-0.6-1.4S12.6,3,11.9,3c-0.7,0-1.2,0.2-1.6,0.6C10,4,9.8,4.5,9.8,5.2L8.4,5.1
		c0.1-1,0.5-1.8,1.1-2.4c0.6-0.5,1.5-0.8,2.5-0.8c1.1,0,1.9,0.3,2.5,0.9s0.9,1.3,0.9,2.2c0,0.4-0.1,0.9-0.3,1.3s-0.5,0.9-0.9,1.4
		s-1.1,1.1-2.1,2c-0.8,0.7-1.3,1.2-1.6,1.4s-0.4,0.5-0.6,0.7H15.4z"/>
</g>
</svg>
