<?xml version="1.0" encoding="UTF-8"?>
<svg id="Layer_1" data-name="Layer 1" xmlns="http://www.w3.org/2000/svg" viewBox="0 0 16 16">
  <defs>
    <style>
      .cls-1 {
        fill: #338ecc;
      }
    </style>
  </defs>
  <path class="cls-1" d="m4,13h-1V3h1v10Z"/>
  <path class="cls-1" d="m6,13V3h2.99c1.52,0,2.73.45,3.65,1.34.91.89,1.37,2.11,1.37,3.66s-.48,2.84-1.43,3.72c-.92.85-2.17,1.28-3.76,1.28h-2.81Zm1.13-8.92v7.83h1.79c1.23,0,2.19-.34,2.87-1.02.68-.68,1.02-1.65,1.02-2.9s-.37-2.22-1.11-2.91c-.7-.67-1.68-1-2.92-1h-1.65Z"/>
  <rect class="cls-1" x="2" y="3" width="3" height="1"/>
  <rect class="cls-1" x="2" y="12" width="3" height="1"/>
</svg>