<?xml version="1.0" encoding="UTF-8"?>
<svg id="Layer_1" data-name="Layer 1" xmlns="http://www.w3.org/2000/svg" viewBox="0 0 16 16">
  <defs>
    <style>
      .cls-1 {
        fill: #338ecc;
      }
    </style>
  </defs>
  <path class="cls-1" d="m9.22,13h-1.33l-1.22-3.21H2.55l-1.24,3.21H0L4.04,2.64h1.14l4.04,10.36Zm-2.98-4.36l-1.61-4.27-.04.03-1.62,4.24h3.27Z"/>
  <path class="cls-1" d="m16,9.91c0,2.06-1.24,3.09-3.73,3.09h-2.35V2.64h2.07c2.27,0,3.41.92,3.41,2.76,0,.98-.43,1.65-1.29,2.03,1.26.38,1.89,1.21,1.89,2.47Zm-4.88-6.14v3.34h1.01c1.36,0,2.04-.58,2.04-1.73,0-1.07-.72-1.61-2.17-1.61h-.88Zm0,4.36v3.76h1.24c1.59,0,2.39-.6,2.39-1.81,0-.73-.21-1.25-.62-1.55-.35-.26-.91-.39-1.67-.39h-1.34Z"/>
</svg>