<?xml version="1.0" encoding="UTF-8"?>
<svg id="Layer_1" data-name="Layer 1" xmlns="http://www.w3.org/2000/svg" viewBox="0 0 16 16">
  <defs>
    <style>
      .cls-1 {
        fill: #338ecc;
      }
    </style>
  </defs>
  <path class="cls-1" d="m13,1v14H3V1h10M14,0H2v16h12V0h0Z"/>
  <path class="cls-1" d="m8.6,9.99h-.98c0-.9.36-1.76,1.09-2.58.32-.32.63-.64.93-.96.27-.34.4-.78.4-1.31,0-.64-.17-1.15-.51-1.53-.34-.38-.82-.56-1.44-.56-.68,0-1.2.23-1.57.69-.26.33-.46.75-.51,1.27h-1c.07-.77.38-1.43.86-1.98.59-.68,1.35-1.02,2.28-1.02s1.62.3,2.16.89c.51.58.77,1.34.77,2.26,0,.67-.22,1.29-.65,1.84-.39.43-.79.86-1.18,1.3-.43.52-.65,1.09-.65,1.7Zm-.98,4.01v-1.02h.98v1.02h-.98Zm0-2.04v-1.97h.98v1.97h-.98Z"/>
</svg>