<svg width="16" height="16" viewBox="0 0 16 16" fill="none" xmlns="http://www.w3.org/2000/svg">
<g clip-path="url(#clip0_5324_1749)">
<g clip-path="url(#clip1_5324_1749)">
<path d="M10 4C10 2.89543 9.10457 2 8 2C6.89543 2 6 2.89543 6 4V8C6 9.10457 6.89543 10 8 10C9.10457 10 10 9.10457 10 8V4Z" fill="#CF4A27"/>
<path d="M10 13H6V14H10V13Z" fill="#CF4A27"/>
<path d="M8 11C6.35 11 5 9.65 5 8H4C4 10.21 5.79 12 8 12C10.21 12 12 10.21 12 8H11C11 9.65 9.65 11 8 11Z" fill="#CF4A27"/>
<path d="M1 8C1 4.14 4.14 1 8 1C11.86 1 15 4.14 15 8C15 11.86 11.86 15 8 15C4.14 15 1 11.86 1 8ZM0 8C0 12.42 3.58 16 8 16C12.42 16 16 12.42 16 8C16 3.58 12.42 0 8 0C3.58 0 0 3.58 0 8Z" fill="url(#paint0_radial_5324_1749)"/>
</g>
</g>
<defs>
<radialGradient id="paint0_radial_5324_1749" cx="0" cy="0" r="1" gradientUnits="userSpaceOnUse" gradientTransform="translate(-1.3 16.3) rotate(-90) scale(13.18)">
<stop offset="0.47" stop-color="white" stop-opacity="0"/>
<stop offset="0.69" stop-color="#E9AD9E" stop-opacity="0.45"/>
<stop offset="0.9" stop-color="#D66648" stop-opacity="0.84"/>
<stop offset="1" stop-color="#CF4A27"/>
</radialGradient>
<clipPath id="clip0_5324_1749">
<rect width="16" height="16" fill="white"/>
</clipPath>
<clipPath id="clip1_5324_1749">
<rect width="16" height="16" fill="white"/>
</clipPath>
</defs>
</svg>
