<svg width="16" height="16" viewBox="0 0 16 16" fill="none" xmlns="http://www.w3.org/2000/svg">
	<path fill="#382924" d="M14,2.7c-0.5-0.2-1.8,0-2.7,0.3c-0.4,0.2-0.8,0.4-0.9,0.7c-0.3,0.7,1.7,2,2.5,1.8c0.4-0.1,1-1,1.2-1.7C14.3,3.3,14.3,2.8,14,2.7z"/>
	<path fill="#382924" d="M9.4,3.1C9.1,3.1,8.7,3,8.5,2.8C8.2,2.4,7.6,2.3,7.2,2.4C6.8,2.5,6.6,3,6.8,3.6c0.1,0.2,0.1,0.6,0,0.8c0.4-0.4,0.8-0.7,1.1-0.9C8.5,3.3,9,3.2,9.4,3.1z"/>
	<path fill-rule="evenodd" clip-rule="evenodd" fill="#382924" d="M14.2,14.3c-0.1-0.2-0.1-0.3-0.2-0.4c-0.7-1.3-0.6-1.9,0.1-3.2c0.7-1.2,0.9-2,1.1-3.1c0.1-0.7,0-1.2,0-1.3V6.3c0,0,0,0.1,0,0.1V6.3c0,0-0.4,1.7-1.3,2.3c-0.2,0.2-0.3,0.3-0.4,0.3c0.1-0.3,0.4-1.7-0.1-2.4c0,0-0.2,3.1-1.9,3.3C10,9.9,7.7,8.2,7,7.5c0.1,0.2,0.1,0.3,0.1,0.4L7.1,7.9c0,0,0.1,0.1,0.1,0.2c0.1,0.2,0.1,0.4,0.2,0.6c0.3,0.8,0.5,1.9,0.1,2.6c-0.1,0.2-0.2,0.4-0.3,0.6c-0.5,0.9-1.2,2.2-1.4,3.7c1,0.4,2,0.5,3.1,0.5C10.8,16.1,12.7,15.5,14.2,14.3z M1.2,11.9c-0.2-0.3-0.3-0.6-0.5-0.8C1.3,9.9,2,8.8,2.2,8.5c0-0.3,0-0.7,0.1-1c0.1-0.3-0.2-0.7-0.4-1.2C1.7,5.9,1.5,5.5,1.4,5.1C1.1,4.1,1.7,3.9,2,3.9c0.1,0,0.2,0,0.3,0c0.4,0,0.9,0.1,1.4-0.1c0.8-1.1,1.8-2.2,3.4-3.2C9.9-1,12.1,1,12.1,1C10.4,0.3,9,0.3,7.2,1.3S3.8,4.5,2.9,7C2,9.5,3.2,10.1,3.2,10.1C2.8,10,2.5,9.7,2.3,9.3C2.2,9.7,1.7,10.6,1.2,11.9z M13.2,11.3c0.3-0.7,0.8-2.1,0.8-2.1c-0.7,0.8-1.4,1.3-2.8,1.2c0,0.1,0.1,1.6,0.4,1.8c0.3,0.1,0.6,0.1,0.8-0.1c0.2-0.4,0.5-0.9,0.6-1.6c0,0,0.1,0.2,0,0.6c0,0.1,0,0.1-0.1,0.2c-0.1,0.4-0.1,0.6-0.2,0.7h0.1C12.9,11.9,13,11.8,13.2,11.3z"/>
</svg>
