<svg width="243" height="79" viewBox="0 0 243 79" fill="none" xmlns="http://www.w3.org/2000/svg">
    <path d="M62.4821 21.215C59.9371 30.807 57.3111 39.0286 50.9327 39.0286C49.4067 39.0286 40.1174 66.509 33.6819 70.8119C26.6677 75.5013 22.5131 56.9226 22.0102 53.6463C21.1853 48.2719 24.0166 39.0286 31.6134 19.802C33.7319 10.1947 39.4811 1.28252 50.4433 0.597275C57.3391 0.166222 65.005 11.7059 62.4821 21.215Z" fill="white"/>
    <path d="M31.3661 70.8108C31.3661 70.8108 29.085 64.3052 28.8315 59.236C28.578 54.1668 29.9298 51.1256 29.9298 51.1256C29.9298 51.1256 31.535 55.7724 37.5336 60.2501C43.5321 64.7277 43.1942 62.1087 43.4475 61.6017C43.701 61.0949 43.3631 58.1378 42.0957 54.9274C40.8285 51.7168 39.8146 49.9428 39.4767 43.4375C39.1388 36.9319 42.4338 32.3698 43.9545 29.4129C44.9155 27.5439 44.2708 24.5631 43.6662 22.6212C43.4843 22.1747 43.3133 21.6919 43.1589 21.1639C43.0477 20.8776 42.9754 20.7109 42.9754 20.7109C42.9754 20.7109 43.0052 20.7452 43.0616 20.8082C42.971 20.473 42.8843 20.1272 42.8065 19.7587C44.5457 21.5322 50.6288 25.949 54.9454 25.519C59.2619 25.0893 59.7531 16.9934 59.7531 16.9934C60.9392 18.9205 60.1095 22.4395 59.8881 23.2743C60.0978 23.1069 60.4251 22.8585 60.9361 22.4851C63.1326 20.8798 64.247 16.402 64.247 16.402C63.9862 13.1168 63.0844 11.0749 62.2538 9.83545C61.5754 11.8095 60.0531 14.0659 58.9927 14.3745C56.7681 15.0216 51.2484 11.502 52.1495 9.47422C52.4779 8.73544 53.4337 8.11782 54.6381 7.64777C52.6508 7.98985 51.2544 7.62244 49.2618 7.99249C48.244 8.25791 47.6382 8.24381 45.8255 9.2099C43.6006 10.3954 43.2911 10.9804 42.5058 11.7117C39.7221 14.304 36.4758 18.1137 35.6465 19.6126C34.0133 22.5646 32.4141 25.8477 38.8289 26.7889C37.3082 28.3528 32.9262 26.2869 32.9262 26.2869C32.9262 26.2869 26.8705 36.4039 25.8462 48.6144C24.8224 60.8246 30.0143 69.4639 31.3661 70.8108Z" fill="#8A7363"/>
    <path d="M61.9497 6.85462C60.5893 6.34448 57.0937 6.68832 54.638 7.64714C53.4333 8.1174 52.4778 8.73503 52.1494 9.4738C51.2483 11.5013 56.7679 15.0212 58.9926 14.3738C60.053 14.0655 61.5752 11.8091 62.2534 9.83482C62.7356 8.4315 62.7922 7.1707 61.9497 6.85462Z" fill="#382924"/>
    <path d="M49.4299 7.96296C48.7995 7.88257 47.4964 7.70658 47.0803 7.23521C46.1499 6.18145 44.6585 5.89841 43.5743 6.13696C42.4252 6.38961 41.8138 7.72684 42.6025 9.38963C42.9574 10.1379 42.8675 11.0392 42.5058 11.7117C43.6356 10.6592 44.6915 9.80196 45.475 9.38963C47.0191 8.57751 48.3887 8.15614 49.4299 7.96296Z" fill="#382924"/>
    <path d="M60.8795 23.9448C60.8795 23.9448 59.7531 27.7748 58.9646 29.5209C58.2696 31.0596 58.0493 30.9365 57.5471 31.1169C57.7359 30.6398 57.872 30.0138 58.1196 28.9576C58.4176 27.6869 58.1196 27.3523 58.1196 27.3523C57.7291 29.2539 57.1218 30.6127 56.6062 31.5043C55.9368 31.7281 55.1141 31.8726 54.515 31.633C53.6702 31.2951 53.5266 27.3241 53.5266 27.0988C57.2031 27.3523 59.1617 25.8598 60.8795 23.9448ZM64.2467 20.0351C64.4754 18.2776 64.3073 16.9624 64.2589 16.6459C64.2516 16.5978 64.2467 16.5712 64.2467 16.5712C64.2467 16.5712 64.2399 16.6694 64.2219 16.8379L64.2467 16.4023C64.2467 16.4023 63.1324 20.88 60.9359 22.4853C60.4249 22.8587 60.0976 23.1071 59.8879 23.2746C60.1093 22.4397 60.939 18.9208 59.7531 16.9937C59.7531 16.9937 59.2617 25.0895 54.9451 25.5193C50.6286 25.9492 44.5457 21.5325 42.8063 19.7589C42.884 20.1274 42.9708 20.4732 43.0614 20.8085C43.0052 20.7455 42.9752 20.7111 42.9752 20.7111C42.9752 20.7111 43.0475 20.8778 43.1587 21.1642C43.3133 21.6922 43.484 22.175 43.666 22.6215C44.2708 24.5633 44.9153 27.5442 43.9543 29.4131C42.4336 32.37 39.1386 36.9321 39.4765 43.4377C39.8144 49.943 40.8283 51.7171 42.0957 54.9276C43.3629 58.138 43.7008 61.0951 43.4473 61.6019C43.194 62.109 43.5318 64.7279 37.5333 60.2504C31.5348 55.7726 29.9298 51.1259 29.9298 51.1259C29.9298 51.1259 28.578 54.1671 28.8313 59.2363C29.0848 64.3055 31.3659 70.811 31.3659 70.811C31.3659 70.811 23.5088 64.4497 23.0863 51.7171C22.6975 40.0018 29.5538 26.466 30.6525 24.3765C31.1086 25.3512 31.8723 25.9926 32.9263 26.2871C32.9263 26.2871 29.8725 24.6118 32.1119 18.0851C34.3512 11.5584 38.8344 5.75416 43.3799 3.19291C47.925 0.631653 51.755 0.744202 55.9793 2.54664C55.9793 2.54664 50.4596 -2.63996 43.134 1.79003C38.925 4.33564 36.1228 7.1599 34.1939 10.0546C32.5765 10.3434 30.6097 10.0826 29.8126 10.0826C28.8044 10.0826 27.2493 10.7661 27.9524 13.2406C28.6408 15.6635 30.5406 18.1139 30.3862 19.4913C30.2124 20.4609 30.1381 21.3338 30.165 22.103C29.1952 23.6406 24.6663 31.0198 23.2846 36.8846C23.2846 36.8846 25.8744 10.9936 17.9328 6.55901C9.99107 2.12417 3.59278 5.67112 1.45819 11.5022C-3.10418 23.9638 3.65468 43.4377 13.2014 59.1519C22.7484 74.8661 31.7948 77.7089 38.2093 77.9924C48.9389 78.4661 45.8129 76.1335 49.6993 75.8802C53.5857 75.6265 52.9942 77.9924 59.4152 77.0628C64.1042 76.3842 64.9067 73.261 63.1324 71.8249C61.3582 70.3886 61.9496 67.009 63.6395 59.7433C65.3291 52.4776 62.9073 39.6872 61.2174 36.3923C59.5278 33.0973 59.6967 31.4193 61.4991 28.1691C63.2641 24.986 63.8666 22.9591 64.2467 20.0351Z" fill="#382924"/>
    <path d="M93.7561 62.6952H87.6679V23.4051H93.7561C95.892 23.4051 96.9759 24.9826 96.9759 27.3968V58.7029C96.9759 61.1721 96.0387 62.6952 93.7561 62.6952ZM95.518 17.1865H80.6771V68.9136H95.518C100.176 68.9136 103.967 65.1232 103.967 60.4648V25.6348C103.967 20.9762 100.176 17.1865 95.518 17.1865Z" fill="#D03E16"/>
    <path d="M115.91 43.8107H121.367C123.42 43.8107 125.007 45.2427 125.007 47.7326V58.7027C125.007 61.0983 123.64 62.695 121.788 62.695H115.91V43.8107ZM123.532 33.6001C123.532 36.3605 122.539 37.5918 120.312 37.5918H115.91V23.4049H120.312C122.319 23.4049 123.532 25.056 123.532 27.3965V33.6001ZM129.126 39.9764C130.029 38.5966 130.523 36.9995 130.523 35.362V25.6346C130.523 20.9916 126.861 17.2806 122.144 17.1863H108.919C108.919 17.1863 108.91 19.0366 108.919 24.028C108.941 35.745 108.919 68.9136 108.919 68.9136H124.016C125.189 68.9136 126.659 68.3182 126.659 68.3182C129.834 67.0312 131.998 63.9567 131.998 60.4646V45.9707C131.998 43.7711 130.92 41.5918 129.126 39.9764Z" fill="#382923"/>
    <path d="M148.822 36.8371V46.5335H142.325V36.8371C142.325 36.7895 142.343 36.7614 142.358 36.7464C142.407 36.7327 142.448 36.7195 142.447 36.7149H148.717C148.752 36.7252 148.781 36.7431 148.806 36.7321C148.81 36.7402 148.822 36.7746 148.822 36.8371ZM149.472 30.4966H141.674C138.217 30.4966 135.404 33.3411 135.404 36.8371V62.6428C135.404 66.1003 138.217 68.9136 141.674 68.9136H155.813C155.813 68.9136 155.813 62.7054 151.146 62.6952C148.482 62.6891 142.504 62.699 142.504 62.699C142.454 62.6904 142.406 62.677 142.355 62.6624C142.34 62.651 142.326 62.6424 142.325 62.6428V52.7518H155.813V36.8371C155.813 33.3411 152.969 30.4966 149.472 30.4966Z" fill="#382923"/>
    <path d="M172.545 49.1022V62.6963L166.227 62.699C166.177 62.6904 166.129 62.677 166.078 62.6624C166.062 62.6512 166.046 62.6426 166.048 62.643L166.044 49.1769C166.049 49.1647 166.064 49.1476 166.079 49.1344C166.129 49.1205 166.17 49.1073 166.17 49.1022H172.545ZM173.196 30.4966H165.021C160.239 30.4966 160.175 36.7151 160.175 36.7151H172.441C172.475 36.7255 172.508 36.7431 172.529 36.7323C172.534 36.7402 172.545 36.7746 172.545 36.8371V42.8839H165.397C161.94 42.8839 159.127 45.6969 159.127 49.1544V62.643C159.127 66.1006 161.94 68.9136 165.397 68.9136H179.536V36.8371C179.536 33.3411 176.692 30.4966 173.196 30.4966Z" fill="#382923"/>
    <path d="M191.333 53.5822L186.999 30.4963H180.291L187.426 68.9136H195.077L202.211 30.4963H195.716L191.333 53.5822Z" fill="#382923"/>
    <path d="M239.623 30.4966C239.34 30.4966 238.87 30.4915 238.316 30.4851C236.306 30.4633 234.577 30.4483 233.752 30.5047C230.223 30.8159 227.662 33.4794 227.662 36.8371V68.9136H234.583C234.583 68.9136 234.67 47.7749 234.583 38.9658C234.56 36.6521 234.559 36.6909 236.291 36.6411C237.863 36.5957 238.514 36.5503 239.255 36.5451C243 36.5193 243 30.4966 243 30.4966H239.623Z" fill="#382923"/>
    <path d="M166.045 60.7475V62.7063H168.004C166.922 62.7063 166.045 61.8292 166.045 60.7475Z" fill="#382923"/>
    <path d="M142.309 60.7475V62.7063H144.268C143.186 62.7063 142.309 61.8292 142.309 60.7475Z" fill="#382923"/>
    <path d="M168.003 49.0653H166.045V51.0242C166.045 49.9422 166.922 49.0653 168.003 49.0653Z" fill="#382923"/>
    <path d="M144.268 36.6916H142.309V38.6504C142.309 37.5684 143.186 36.6916 144.268 36.6916Z" fill="#382923"/>
    <path d="M148.822 38.6504V36.6916H146.863C147.945 36.6916 148.822 37.5687 148.822 38.6504Z" fill="#382923"/>
    <path d="M172.559 38.6504V36.6916H170.6C171.682 36.6916 172.559 37.5687 172.559 38.6504Z" fill="#382923"/>
    <path d="M217.178 36.8371V46.5335H210.681V36.8371C210.681 36.7895 210.699 36.7614 210.714 36.7464C210.763 36.7327 210.804 36.7195 210.803 36.7149H217.074C217.109 36.7252 217.137 36.7431 217.162 36.7321C217.167 36.7402 217.178 36.7746 217.178 36.8371ZM217.829 30.4966H210.031C206.573 30.4966 203.76 33.3411 203.76 36.8371V62.6428C203.76 66.1003 206.573 68.9136 210.031 68.9136H224.17C224.17 68.9136 224.17 62.7054 219.502 62.6952C216.838 62.6891 210.86 62.699 210.86 62.699C210.81 62.6904 210.762 62.677 210.711 62.6624C210.696 62.651 210.683 62.6424 210.681 62.6428V52.7518H224.17V36.8371C224.17 33.3411 221.325 30.4966 217.829 30.4966Z" fill="#382923"/>
    <path d="M210.665 60.7475V62.7063H212.624C211.542 62.7063 210.665 61.8292 210.665 60.7475Z" fill="#382923"/>
    <path d="M212.624 36.6916H210.665V38.6504C210.665 37.5684 211.542 36.6916 212.624 36.6916Z" fill="#382923"/>
    <path d="M235.647 36.6371H233.688V38.5959C233.688 37.514 234.565 36.6371 235.647 36.6371Z" fill="#382923"/>
    <path d="M217.178 38.6504V36.6916H215.219C216.301 36.6916 217.178 37.5687 217.178 38.6504Z" fill="#382923"/>
</svg>
