/* XPM */
static char * dbeaver_xpm[] = {
"64 64 311 2",
"  	c None",
". 	c #FFFFFF",
"+ 	c #F2F1F1",
"@ 	c #9D9694",
"# 	c #655956",
"$ 	c #4A3D38",
"% 	c #5F534F",
"& 	c #736965",
"* 	c #B4AFAD",
"= 	c #FCFCFC",
"- 	c #AAA4A1",
"; 	c #4B3E39",
"> 	c #8F8683",
", 	c #DAD7D6",
"' 	c #FBFAFA",
") 	c #E2E0E0",
"! 	c #C4BFBE",
"~ 	c #F1F0F0",
"{ 	c #6F6461",
"] 	c #796F6C",
"^ 	c #C9C5C4",
"/ 	c #817875",
"( 	c #5A4E49",
"_ 	c #584B47",
": 	c #706562",
"< 	c #A19A98",
"[ 	c #ECEAEA",
"} 	c #E5E3E2",
"| 	c #584C48",
"1 	c #A8A19F",
"2 	c #F8F7F7",
"3 	c #766C69",
"4 	c #372823",
"5 	c #3D2E2A",
"6 	c #8B8380",
"7 	c #F8F8F8",
"8 	c #EAE8E7",
"9 	c #4F423D",
"0 	c #B0AAA8",
"a 	c #FEFEFE",
"b 	c #756B68",
"c 	c #574A46",
"d 	c #A49D9B",
"e 	c #F4F3F3",
"f 	c #D6D3D2",
"g 	c #BFBAB9",
"h 	c #CDC9C7",
"i 	c #6C615D",
"j 	c #968E8B",
"k 	c #746965",
"l 	c #D4CECA",
"m 	c #DFD9D4",
"n 	c #A89E99",
"o 	c #5D504A",
"p 	c #392924",
"q 	c #CECAC9",
"r 	c #AFA9A7",
"s 	c #E8E6E6",
"t 	c #E1DFDE",
"u 	c #847A77",
"v 	c #6D625E",
"w 	c #50433E",
"x 	c #635650",
"y 	c #8C7A6F",
"z 	c #897262",
"A 	c #6D584C",
"B 	c #EAE9E8",
"C 	c #FCFBFB",
"D 	c #4C3E3A",
"E 	c #534642",
"F 	c #BAB4B3",
"G 	c #FAF9F8",
"H 	c #7F7068",
"I 	c #6F5A4E",
"J 	c #493831",
"K 	c #DAD2CD",
"L 	c #D4D0CF",
"M 	c #99918E",
"N 	c #9C9492",
"O 	c #FBFAF9",
"P 	c #A59387",
"Q 	c #614D43",
"R 	c #766053",
"S 	c #A79589",
"T 	c #A59F9C",
"U 	c #9B9491",
"V 	c #453732",
"W 	c #A8978B",
"X 	c #7A6557",
"Y 	c #524037",
"Z 	c #40302A",
"` 	c #624F44",
" .	c #F8F6F5",
"..	c #776D69",
"+.	c #7D736F",
"@.	c #928987",
"#.	c #AF9F94",
"$.	c #E4DEDB",
"%.	c #564945",
"&.	c #F9F9F9",
"*.	c #463833",
"=.	c #392A25",
"-.	c #E4E2E1",
";.	c #C1B5AD",
">.	c #856F5F",
",.	c #7D6759",
"'.	c #D2C9C3",
").	c #4D403C",
"!.	c #948C89",
"~.	c #685D59",
"{.	c #D9D1CC",
"].	c #6B574B",
"^.	c #846E5F",
"/.	c #5E4C41",
"(.	c #D3CAC4",
"_.	c #BEB9B7",
":.	c #9D9593",
"<.	c #F6F4F3",
"[.	c #917C6D",
"}.	c #836D5D",
"|.	c #816B5D",
"1.	c #5A473E",
"2.	c #7E695A",
"3.	c #755F52",
"4.	c #544238",
"5.	c #E0DAD6",
"6.	c #3E2F2A",
"7.	c #DBD8D7",
"8.	c #BAB5B4",
"9.	c #C2B6AE",
"0.	c #887061",
"a.	c #47362F",
"b.	c #776154",
"c.	c #887161",
"d.	c #41312B",
"e.	c #7F695B",
"f.	c #44342E",
"g.	c #645147",
"h.	c #473935",
"i.	c #CAC6C5",
"j.	c #937E6F",
"k.	c #55443B",
"l.	c #382924",
"m.	c #5D4B40",
"n.	c #866F60",
"o.	c #6C584C",
"p.	c #3B2B26",
"q.	c #8E7E73",
"r.	c #5C4F4B",
"s.	c #C2BDBB",
"t.	c #9F9895",
"u.	c #8A7464",
"v.	c #695549",
"w.	c #3E2E29",
"x.	c #614E44",
"y.	c #836C5D",
"z.	c #41312A",
"A.	c #41322E",
"B.	c #51433F",
"C.	c #CEC6C0",
"D.	c #BEBAB8",
"E.	c #524541",
"F.	c #B3AEAC",
"G.	c #D7D4D3",
"H.	c #C0B3AB",
"I.	c #8A7363",
"J.	c #756153",
"K.	c #382823",
"L.	c #45352E",
"M.	c #47372F",
"N.	c #D1CECC",
"O.	c #605047",
"P.	c #FAF9F9",
"Q.	c #857C79",
"R.	c #F3F1EF",
"S.	c #B5A69C",
"T.	c #DBD4CF",
"U.	c #DDD7D2",
"V.	c #A9988C",
"W.	c #776255",
"X.	c #645855",
"Y.	c #B5AFAD",
"Z.	c #D2CECD",
"`.	c #F5F4F4",
" +	c #C1BCBB",
".+	c #B0A49D",
"++	c #A8A2A0",
"@+	c #BBAEA5",
"#+	c #685448",
"$+	c #CBC7C6",
"%+	c #8E837D",
"&+	c #F9F8F7",
"*+	c #3B2C27",
"=+	c #EBEAE9",
"-+	c #8E7768",
";+	c #887262",
">+	c #45352D",
",+	c #F4F3F2",
"'+	c #A0948D",
")+	c #FAFAF9",
"!+	c #3C2E29",
"~+	c #665A56",
"{+	c #C7BCB4",
"]+	c #918987",
"^+	c #746966",
"/+	c #C5BAB2",
"(+	c #615551",
"_+	c #BCB7B5",
":+	c #FFFEFE",
"<+	c #978375",
"[+	c #CBC2BC",
"}+	c #7C726F",
"|+	c #40322D",
"1+	c #E1DBD7",
"2+	c #705C4F",
"3+	c #ACA19D",
"4+	c #786E6A",
"5+	c #B6A89E",
"6+	c #544239",
"7+	c #6E625E",
"8+	c #B6B0AE",
"9+	c #927D6E",
"0+	c #3D2D27",
"a+	c #3A2C27",
"b+	c #F1EFEF",
"c+	c #877E7B",
"d+	c #E5DFDC",
"e+	c #7A6456",
"f+	c #C3B8AF",
"g+	c #735E51",
"h+	c #867D7A",
"i+	c #837976",
"j+	c #6D594C",
"k+	c #5C504C",
"l+	c #9E9795",
"m+	c #907B6C",
"n+	c #69564A",
"o+	c #3A2B26",
"p+	c #C5C1C0",
"q+	c #EFECEA",
"r+	c #DFDDDC",
"s+	c #C3BFBD",
"t+	c #D1CECD",
"u+	c #F5F4F3",
"v+	c #D1C8C1",
"w+	c #B3ADAB",
"x+	c #675B57",
"y+	c #C5B9B1",
"z+	c #A59E9B",
"A+	c #826B5C",
"B+	c #56433A",
"C+	c #968F8C",
"D+	c #BFB2A9",
"E+	c #4B3A32",
"F+	c #877060",
"G+	c #715C50",
"H+	c #614F43",
"I+	c #877161",
"J+	c #3F3029",
"K+	c #827975",
"L+	c #695E5A",
"M+	c #D0CCCB",
"N+	c #C9BFB7",
"O+	c #766253",
"P+	c #756053",
"Q+	c #5B493F",
"R+	c #89807D",
"S+	c #D5D2D1",
"T+	c #D4CBC5",
"U+	c #735D51",
"V+	c #3E2F29",
"W+	c #7F695A",
"X+	c #7B716E",
"Y+	c #796E6B",
"Z+	c #42312B",
"`+	c #B2ACAA",
" @	c #42332F",
".@	c #766154",
"+@	c #3D2E28",
"@@	c #45342D",
"#@	c #D3CFCE",
"$@	c #ACA6A4",
"%@	c #C2BEBC",
"&@	c #927F71",
"*@	c #3B2D28",
"=@	c #BCAFA7",
"-@	c #4F3E35",
";@	c #BDB8B6",
">@	c #6A5F5C",
",@	c #615046",
"'@	c #938B88",
")@	c #998C86",
"!@	c #C1BCBA",
"~@	c #FDFDFD",
"{@	c #3F302B",
"]@	c #C6C1BF",
"^@	c #4A3C37",
"/@	c #473934",
"(@	c #493B36",
"_@	c #AEA8A6",
":@	c #D8D5D4",
"<@	c #675C58",
"[@	c #3F312C",
"}@	c #D9D6D5",
"|@	c #C5C0BF",
"1@	c #7E7471",
"2@	c #41332E",
"3@	c #A19997",
"4@	c #8C8481",
"5@	c #807673",
"6@	c #EFEEED",
"                                                      . . . . . . . . . .                                                       ",
"                                              . . . . . . . . . . . . . . . . . . .                                             ",
"                                        . . . . . . . . . . . . . . . . . . . . . . . .                                         ",
"                                    . . . . . . . . . . . . . . . . . . . . . . . . . . . .                                     ",
"                                . . . . . . . . . . . . . . . . . . . . . . . . . . . . . . . .                                 ",
"                            . . . . . . . . . . . . . . . . . . . . . . . . . . . . . . . . . . . .                             ",
"                          . . . . . . . . . . . . . . . . . . . . . . + @ # $ % & * = . . . . . . . .                           ",
"                        . . . . . . . . . . . . . . . . . . . . . . - ; > , ' . . ) ! ' . . . . . . . .                         ",
"                      . . . . . . . . . . . . . . . . . . . . . ~ { ] + . . . . . . . . . . . . . . . . . .                     ",
"                  . . ^ / ( _ : < [ . . . . . . . . . . . . . } | 1 . . . . . . . . . . . . . . . . . . . . .                   ",
"                  2 3 4 4 4 4 4 4 5 6 7 . . . . . . . . . . 8 9 0 . . a b c d = . . . . e f g h . . . . . . . .                 ",
"                . i 4 4 4 4 4 4 4 4 4 i a . . . . . . . . 2 ( j . . . + 4 4 4 k l m n o p 4 4 4 q . . . . . . .                 ",
"              . 1 4 4 4 4 4 4 4 4 4 4 4 r . . . . . ) s t u v . . . . . w x y z z A 4 4 4 4 4 4 B . . . . . . . .               ",
"            . C D 4 4 4 4 4 4 4 4 4 4 4 E . . . . F 4 4 4 5 ) . . . . G H z z z z I 4 4 4 4 4 J K . . . . . . . . .             ",
"          . . L 4 4 4 4 4 4 4 4 4 4 4 4 4 f . . . M 4 4 4 N . . . . O P z z z z z z Q 4 4 4 4 R S . . . . . . . . . .           ",
"          . . T 4 4 4 4 4 4 4 4 4 4 4 4 4 d . . . U 4 4 V 2 . . . C W z z z z z z z z X Y Z ` z z  .. . . . . . . . .           ",
"        . . . ..4 4 4 4 4 4 4 4 4 4 4 4 4 +.. . . g 4 4 @.. . . . #.z z z z z z z z z z z z z z z $.. . . . . . . . . .         ",
"        . . . %.4 4 4 4 4 4 4 4 4 4 4 4 4 %.. . . &.*.=.-.. . . ;.z z z z z z z z z z z z >.z z ,.'.. . . . . . . . . .         ",
"      . . . . ).4 4 4 4 4 4 4 4 4 4 4 4 4 =.= . . . !.~.. . . {.z z z z z z z z z z z z z ].^.z /.(.. . . . . . . . . . .       ",
"      . . . . *.4 4 4 4 4 4 4 4 4 4 4 4 4 4 [ . . . _.:.. . <.[.z z }.|.z z z z z z z z z 1.2.3.4.5.. . . . . . . . . . .       ",
"    . . . . . 6.4 4 4 4 4 4 4 4 4 4 4 4 4 4 7.. . . r 8.. . 9.z z z 0.a.b.z z z z z z z c.d.e.f.g. .. . . . . . . . . . . .     ",
"    . . . . . h.4 4 4 4 4 4 4 4 4 4 4 4 4 4 i.. . . # _.. . j.z z z z k.l.m.n.z z z z z o.p.J 4 q.. . . . . . . . . . . . .     ",
"    . . . . . r.4 4 4 4 4 4 4 4 4 4 4 4 4 4 s.. . 8.w t.. O u.z z z z v.4 4 w.x.y.z z ,.z.4 A.B.C.. . . . . . . . . . . . .     ",
"  . . . . . . : 4 4 4 4 4 4 4 4 4 4 4 4 4 4 D.. C E.F.G.C . H.I.z z z J.4 4 4 4 K.L.M.p 4 | N.O.P.. . . . . . . . . . . . . .   ",
"  . . . . . . Q.4 4 4 4 4 4 4 4 4 4 4 4 4 4 8.. r ; ' . R.S.T.U.V.z z W.4 4 4 4 4 4 X.Y.Z.`. +.+. . . . . . . . . . . . . . .   ",
"  . . . . . . ++4 4 4 4 4 4 4 4 4 4 4 4 4 4 F a E N . . @+z z z z z z #+4 4 4 4 4 4 ... . $+%+&+. . . . . . . . . . . . . . .   ",
"  . . . . . . L 4 4 4 4 4 4 4 4 4 4 4 4 4 4 D.g *+=+. <.-+z z z z z ;+>+4 4 4 4 4 4 | . ,+< '+. . . . . . . . . . . . . . . .   ",
"  . . . . . . )+!+4 4 4 4 4 4 4 4 4 4 4 4 4 ! ~+& . . {+z z z z z z o.4 4 4 4 4 4 4 4 ]+^+p./+. . . . . . . . . . . . . . . . . ",
". . . . . . . . (+4 4 4 4 4 4 4 4 4 4 4 4 4 0 4 _+. :+<+z z z z z z f.4 4 4 4 4 4 4 4 4 4 4 [+. . . . . . . . . . . . . . . . . ",
". . . . . . . . j 4 4 4 4 4 4 4 4 4 4 4 4 4 }+|+&.. 1+z z z z z z 2+4 4 4 4 4 4 4 4 4 4 4 4 3+. . . . . . . . . . . . . . . . . ",
". . . . . . . . L 4 4 4 4 4 4 4 4 4 4 4 4 4 $ 4+. . 5+z z z z z z 6+4 4 4 4 4 4 4 4 4 4 4 4 7+. . . . . . . . . . . . . . . . . ",
". . . . . . . . . $ 4 4 4 4 4 4 4 4 4 4 4 4 4 8+. :+9+z z z z z c.0+4 4 4 4 4 4 4 4 4 4 4 4 a+b+. . . . . . . . . . . . . . . . ",
". . . . . . . . . c+4 4 4 4 4 4 4 4 4 4 4 4 4 [ . d+z z z z z z e+4 4 4 4 4 4 4 4 4 4 4 4 4 4 F . . . . . . . . . . . . . . . . ",
". . . . . . . . . i.4 4 4 4 4 4 4 4 4 4 4 4 E . . f+z z z z z z g+4 4 4 4 4 4 4 4 4 4 4 4 4 4 h+. . . . . . . . . . . . . . . . ",
". . . . . . . . . . B.4 4 4 4 4 4 4 4 4 4 4 i+. . V.z z z z z z j+4 4 4 4 4 4 4 4 4 4 4 4 4 4 k+. . . . . . . . . . . . . . . . ",
". . . . . . . . . . l+4 4 4 4 4 4 4 4 4 4 4 1 . . m+z z z z z z n+4 4 4 4 4 4 4 4 4 4 4 4 4 4 *+' . . . . . . . . . . . . . . . ",
"  . . . . . . . . . =+o+4 4 4 4 4 4 4 4 4 4 p+. q+z z z z z z z I 4 4 4 4 4 4 4 4 4 4 4 4 4 4 4 r+. . . . . . . . . . . . . . . ",
"  . . . . . . . . . . b 4 4 4 4 4 4 4 4 4 4 -.. 5.z z z z z z z b.4 4 4 4 4 4 4 4 4 4 4 4 4 4 4 s+. . . . . . . . . . . . . .   ",
"  . . . . . . . . . . t+4 4 4 4 4 4 4 4 4 4 u+. v+z z z z z z z y.4 4 4 4 4 4 4 4 4 4 4 4 4 4 4 w+. . . . . . . . . . . . . .   ",
"  . . . . . . . . . . . x+4 4 4 4 4 4 4 4 4 C . y+z z z z z z z z z.4 4 4 4 4 4 4 4 4 4 4 4 4 4 z+. . . . . . . . . . . . . .   ",
"  . . . . . . . . . . . p+4 4 4 4 4 4 4 4 o+. . ;.z A+z z z z z z B+4 4 4 4 4 4 4 4 4 4 4 4 4 4 C+. . . . . . . . . . . . . .   ",
"    . . . . . . . . . . . r.4 4 4 4 4 4 4 4 7 . D+z E+F+z z z z z G+4 4 4 4 4 4 4 4 4 4 4 4 4 4 c+. . . . . . . . . . . . .     ",
"    . . . . . . . . . . . ! 4 4 4 4 4 4 4 4 } . H.|.4 H+z z z z z I+J+4 4 4 4 4 4 4 4 4 4 4 4 4 K+. . . . . . . . . . . . .     ",
"    . . . . . . . . . . . . L+4 4 4 4 4 4 4 M+. N+O+4 p P+z z z z z Q+4 4 4 4 4 4 4 4 4 4 4 4 4 R+. . . . . . . . . . . . .     ",
"      . . . . . . . . . . . S+l.4 4 4 4 4 4 - . T+U+4 4 V+W+z z z z P+4 4 4 4 4 4 4 4 4 4 4 4 4 j . . . . . . . . . . . .       ",
"      . . . . . . . . . . . . X+4 4 4 4 4 4 Y+. d+G+4 4 4 Z+,.z z z F+=.4 4 4 4 4 4 4 4 4 4 4 4 `+. . . . . . . . . . . .       ",
"        . . . . . . . . . . . 8  @4 4 4 4 4 h.= G .@4 4 4 4 +@3.z z z @@4 4 4 4 4 4 4 4 4 4 4 4 #@. . . . . . . . . . .         ",
"        . . . . . . . . . . . . $@4 4 4 4 4 4 %@. &@4 4 4 4 4 K./.n.z @@4 4 4 4 4 4 4 4 4 4 4 *@&.. . . . . . . . . . .         ",
"          . . . . . . . . . . . . x+4 4 4 4 4 & . =@=.4 4 4 4 4 4 V+-@4 4 4 4 4 4 4 4 4 4 4 4 % . . . . . . . . . . .           ",
"            . . . . . . . . . . . t |+4 4 4 4 l.G.1+J 4 4 4 4 4 4 4 4 4 4 4 4 4 4 4 4 4 4 4 4 c+. . . . . . . . . . .           ",
"            . . . . . . . . . . . . ;@4 4 4 4 4 >@:+,@4 4 4 4 4 4 4 4 4 4 4 4 4 4 4 4 4 4 4 4 z+. . . . . . . . . .             ",
"              . . . . . . . . . . . . '@4 4 4 4 4 r )@4 4 4 4 4 4 4 4 4 4 4 4 4 4 4 4 4 4 4 4 !@. . . . . . . . .               ",
"                . . . . . . . . . . . ~@b 4 4 4 4 {@]@p 4 4 4 4 4 4 4 4 4 4 4 4 4 4 4 4 4 4 4 ! . . . . . . . .                 ",
"                  . . . . . . . . . . . C b 4 4 4 4 ^@/@4 4 4 4 4 4 4 4 4 4 4 4 4 4 4 4 4 4 4 ++. . . . . . .                   ",
"                    . . . . . . . . . . . C }+4 4 4 4 4 4 4 4 4 4 4 4 4 4 4 4 4 4 4 4 4 4 4 4 (@e . . . . .                     ",
"                      . . . . . . . . . . . . 1 *@4 4 4 4 4 4 4 4 4 4 4 4 4 4 4 4 4 4 4 4 4 4 4 _@. . . .                       ",
"                        . . . . . . . . . . . . :@<@4 4 4 4 4 4 4 4 4 4 4 4 4 4 4 4 4 4 4 4 4 [@7.. . .                         ",
"                          . . . . . . . . . . . . . ! & o+4 4 4 4 4 4 4 4 ( ;@}@|@1@|+4 4 2@}+L . . .                           ",
"                              . . . . . . . . . . . . . + |@3@4@u 5@Q.j D.' . . . . ~@=+6@. . . .                               ",
"                                . . . . . . . . . . . . . . . . . . . . . . . . . . . . . . . .                                 ",
"                                    . . . . . . . . . . . . . . . . . . . . . . . . . . . .                                     ",
"                                          . . . . . . . . . . . . . . . . . . . . . . .                                         ",
"                                                . . . . . . . . . . . . . . . . .                                               ",
"                                                          . . . . . .                                                           "};
