/* XPM */
static char *dbeaver[] = {
/* columns rows colors chars-per-pixel */
"48 48 79 1",
"  c #060707",
". c #161717",
"X c #1A1A1A",
"o c #1F2020",
"O c #222222",
"+ c #272929",
"@ c #292A2A",
"# c #2F302F",
"$ c #323333",
"% c #3B3B3C",
"& c #3F4040",
"* c #454545",
"= c #474949",
"- c #4C4D4D",
"; c #4F5050",
": c #515252",
"> c #5A5C5B",
", c #5F5F60",
"< c #636363",
"1 c #676969",
"2 c #6B6C6C",
"3 c #6F706F",
"4 c #6F7070",
"5 c #737474",
"6 c #777977",
"7 c #777779",
"8 c #777979",
"9 c #7B7B7B",
"0 c #7F807F",
"q c #7F7F80",
"w c #7F8080",
"e c #838383",
"r c #868688",
"t c #868888",
"y c #8A8B8B",
"u c #8F908F",
"i c #90908F",
"p c #8F8F90",
"a c #8F9090",
"s c #939393",
"d c #969896",
"f c #969898",
"g c #9A9B9B",
"h c #9FA0A0",
"j c #A3A3A3",
"k c #A6A6A8",
"l c #A6A8A8",
"z c #ABABAB",
"x c #AFAFB0",
"c c #AFB0B0",
"v c #B2B3B3",
"b c #B6B6B8",
"n c #B6B8B8",
"m c #BABBBB",
"M c #BEBFC0",
"N c #BFC0C0",
"B c #C2C3C3",
"V c #C6C6C8",
"C c #C6C8C8",
"Z c #CBCBCC",
"A c #CFD0CF",
"S c #CFCFD0",
"D c #CFD0D0",
"F c #D2D3D3",
"G c #D6D6D8",
"H c #D6D8D8",
"J c #DADBDB",
"K c #DEDFE0",
"L c #DFE0E0",
"P c #E2E3E3",
"I c #E5E8E8",
"U c #EAEBEC",
"Y c #EEEFF0",
"T c #EFF0F0",
"R c #F3F4F4",
"E c #F5F5F8",
"W c #F6F8F8",
"Q c #FAFBFB",
"! c None",
/* pixels */
"!!!!!!!!!!!!!!!!!!!!!!!!!!!!!!!!!!!!!!!!!!!!!!!!",
"!!!!!!!!!!!!!!!!!!!!!!!Bzvm!!!!!!!!!!!!!!!!!!!!!",
"!!!!!!!!!!!!!!!!ngajti05e9eihzg!!!!!!!!!!!!!!!!!",
"!!!!!!!!!!!!!!jzryZZgykCZZmmZFBCmsm!!!!!!!!!!!!!",
"!!!!!!!!!!!!!dymZPQWUUQQQQEQWQEUZZAZB!!!!!!!!!!!",
"!!!!!!!!!!!!xvJQQQQQQQQQQQQQQQFe;PAFJNx!!!!!!!!!",
"!!!!!!!!!!!VUQQQQQQQQQQQQQQQEy:%ovvGFvfh!!!!!!!!",
"!!!!!!!!!!mTQQQQQQQQQQQQQQQU<<<<.5NxdjxgdZ!!!!!!",
"!!!!!!!!!zTQQQQQQQQQQQQQQQQy<e37X6Niygzisk!!!!!!",
"!!!!!!!!kUQQQQQQQQQQQQQQQIm:6>,5@r529t9djgg!!!!!",
"!!!!!!!!PQQQQQWQQQQQQQQQIk2>2>,1O*3iejjhzygy!!!!",
"!!!!!!!NQQQQQQQQQQQQQQQEkg5$$&>; $9yjzs0d0iyy!!!",
"!!!!!!jHQQWQQWQQQQQQQQQC<x*#-$:O$3isgft92yhy3!!!",
"!!!!!!fFQQEQWWQQQQQQEEWs3m@;*%#:3qqei9<qjj0rsx!!",
"!!!!!!!HQQQQQQQQQQQJmbhiebe:$2h><q596<qzzszZxj!!",
"!!!!!!!UQQQQQWQQQQPvr9ggyyvjdg93se695qihjmVmxC!!",
"!!!!!!mQWQQQWQQQUZk05eyxzdy96<26<2iq6ijdbBbzZBz!",
"!!!!!vPQWWQQQQQRx7<<ddsfyg3es95<303yvvsvhgmvjjz!",
"!!!!jIQWQQQWWQQC97gvPZj9grikyy99hy9dzxmZmdgdsik!",
"!!!!NQQWWWWQQQUZHUQQQQUBbZBjeyy70e9ekAGGCmAzmmhn",
"!!!!IQEWQQQWQQRUTQQQQQQQRWZiyzk66ss6ikGPFGFvZABZ",
"!!!BWWWQWQEQQTc2zvQQQQQQQQWJyijiegsydzBFGKGZzvbj",
"!!!AWEWQWQWQU,F<gmQQQQQQQQWIkfihtikkyjNFJFVmZZBj",
"!!!HQRWEWWQQc%-*dUQQQQQQQQQPmdeesy0igxVCGFNBGZBV",
"!!!LQEEWQEQQi;5hIQQQQQQQQQWRPny50h99hjAJHGJJFJFZ",
"!!vUQEWWWQRGzfJQQQQQQQQQQQWEUAAi,eytykFJPGFKZACJ",
"!!kIRRWWQQm6ibEQQQQQWUvdmTQEUGZzjgyxvxCGFJFNGFZZ",
"!!kNIWWWQJjlzZEQWQQQUBdysFQEJBAxzhdgNmBKZHFZmBGm",
"!!!tTRREQmkcmZUQQQRPByydsJQWIAFvityxcNAJFNBZCBm!",
"!!>NQRRWPzzcBPRWRUZsgcvkmQQQUTPh9jgilnZFBZBCbZJ!",
"!!<URRWWBzbAIWQIBvkZHJEWQQQQRJBmgiVZvgNJBCZHFZZ!",
"!>vQRRRFFFIQRLFnvAFTRTRQQQQQRPJjvkgNkvkVPANNmH!!",
"!;mPJPbvWRTHFLIPURERUUWQQWQWTUJNkbysvzbkvBVJMM!!",
"!=zmzg<HQIgJREEUTRTEEURQEWQRUWxgzhkdzNxjhvmxV!!!",
"!:=751dWWIJPJHHHZJUWUBJTEQHFFLAdsvZddzvxkvBB!!!!",
"!!$;$mETxZgmJUERPmmFmirBEJNbAHFBVZBt>yghhmGF!!!!",
"!!!+%ZWUPRFIJJKPCdssgczzHvzNNBZZNdbmr22ygjZ!!!!!",
"!!!!OeDUERQWQTPmgghhjBCmZnvvxNBZdhghieytyg!!!!!!",
"!!!!!$9bUERUTIMyyvbyyhmmZcZAnncvdj3<giyyg!!!!!!!",
"!!!!!!!sAAmCmy772e2s9zavNZnNvBAbqg7356:r!!!!!!!!",
"!!!!!!!!deg0!!!95-%-7g2jivmBZKGzeggdst,!!!!!!!!!",
"!!!!!!!!!!!!!!!kd<-=2929ekmmZJAhldkj7a!!!!!!!!!!",
"!!!!!!!!!!!!!!!!!!9<><9<svBChmZgkyrg!!!!!!!!!!!!",
"!!!!!!!!!!!!!!!!!!!!yy950kxg9rzdk5!!!!!!!!!!!!!!",
"!!!!!!!!!!!!!!!!!!!!!!dyse9jgygz!!!!!!!!!!!!!!!!",
"!!!!!!!!!!!!!!!!!!!!!!!!!5299!!!!!!!!!!!!!!!!!!!",
"!!!!!!!!!!!!!!!!!!!!!!!!!!!!!!!!!!!!!!!!!!!!!!!!",
"!!!!!!!!!!!!!!!!!!!!!!!!!!!!!!!!!!!!!!!!!!!!!!!!"
};
