<svg xmlns="http://www.w3.org/2000/svg" width="16" height="16" viewBox="0 0 16 16">
	<path fill="#338ECC" d="M14.9,6.5c0.4-1.1,0.2-2.3-0.3-3.3c-0.9-1.5-2.7-2.3-4.4-1.9C8.7-0.3,6.1-0.5,4.4,1C3.9,1.5,3.5,2.1,3.3,2.8C2.1,3,1.1,3.7,0.6,4.7c-0.9,1.5-0.7,3.4,0.5,4.7c-0.4,1.1-0.2,2.3,0.3,3.3c0.9,1.5,2.7,2.3,4.4,1.9c0.8,0.9,1.9,1.3,3,1.3c1.8,0,3.4-1.1,3.9-2.8c1.1-0.2,2.1-0.9,2.7-1.9C16.3,9.7,16.1,7.8,14.9,6.5C14.9,6.5,14.9,6.5,14.9,6.5z M8.8,15c-0.7,0-1.4-0.2-1.9-0.7L7,14.2l3.2-1.8c0.2-0.1,0.3-0.3,0.3-0.5V7.4l1.4,0.8c0,0,0,0,0,0V12C11.9,13.6,10.5,14.9,8.8,15L8.8,15z M2.3,12.2c-0.4-0.6-0.5-1.3-0.4-2L2,10.3l3.2,1.8c0.2,0.1,0.4,0.1,0.5,0l3.9-2.2v1.6c0,0,0,0,0,0l-3.3,1.9C5,14.1,3.1,13.6,2.3,12.2L2.3,12.2L2.3,12.2z M1.5,5.3c0.4-0.6,0.9-1.1,1.6-1.3v3.8c0,0.2,0.1,0.4,0.3,0.5l3.9,2.2l-1.4,0.8c0,0,0,0,0,0L2.6,9.3C1.1,8.5,0.6,6.7,1.5,5.3L1.5,5.3L1.5,5.3z M12.7,7.8L8.7,5.6l1.4-0.8c0,0,0,0,0,0l3.3,1.9c1.5,0.8,2,2.7,1.1,4.1c-0.4,0.6-0.9,1.1-1.6,1.3V8.3C13,8.1,12.8,7.9,12.7,7.8C12.7,7.8,12.7,7.8,12.7,7.8z M14,5.8L14,5.8l-3.3-1.9c-0.2-0.1-0.4-0.1-0.5,0L6.2,6.2V4.6c0,0,0,0,0,0l3.3-1.9c1.5-0.8,3.3-0.3,4.2,1.1C14,4.4,14.2,5.1,14,5.8C14,5.8,14,5.8,14,5.8z M5.5,8.6L4.1,7.8c0,0,0,0,0,0V4c0-1.7,1.4-3,3-3c0.7,0,1.4,0.2,1.9,0.7L9,1.8L5.8,3.6C5.6,3.7,5.5,3.9,5.5,4.1L5.5,8.6L5.5,8.6z M6.2,7L8,6l1.8,1v2L8,10L6.2,9L6.2,7L6.2,7z"/>
</svg>
