<svg width="16" height="16" viewBox="0 0 16 16" fill="none" xmlns="http://www.w3.org/2000/svg">
<path fill-rule="evenodd" clip-rule="evenodd" d="M8 2C4.69 2 2 2.98 2 4.19V11.82C2 13.03 4.69 14.01 8 14.01C11.31 14.01 14 13.03 14 11.82V4.19C14 2.98 11.31 2 8 2ZM13 4.22C12.8 3.86 11.08 3 8 3C4.92 3 3.2 3.86 3 4.22V11.78C3.2 12.14 4.92 13 8 13C11.08 13 12.8 12.14 13 11.78V4.22Z" fill="#3387C5"/>
<path d="M8 3C11.05 3 13 4.18 13 5C13 5.82 11.05 7 8 7C4.95 7 3 5.82 3 5C3 4.18 4.95 3 8 3Z" fill="#3387C5"/>
<path d="M13.71 7.14C13.58 7.42 13.38 7.65 13.12 7.81C12.85 8.21 11.12 9.07 8 9.07C4.88 9.07 3.14 8.21 2.88 7.81C2.6 7.68 2.39 7.47 2.23 7.21C2.08 7.4 2 7.6 2 7.81C2 9.02 4.69 10 8 10C11.31 10 14 9.02 14 7.81C14 7.58 13.9 7.35 13.71 7.14Z" fill="#3387C5"/>
<path d="M13.71 9.15C13.58 9.42 13.38 9.65 13.12 9.81C12.85 10.21 11.12 11.07 8 11.07C4.88 11.07 3.14 10.21 2.88 9.81C2.6 9.68 2.39 9.47 2.23 9.21C2.08 9.4 2 9.6 2 9.81C2 11.02 4.69 12 8 12C11.31 12 14 11.02 14 9.81C14 9.58 13.9 9.35 13.71 9.14Z" fill="#3387C5"/>
</svg>
