<svg xmlns="http://www.w3.org/2000/svg" width="16" height="16" viewBox="0 0 16 16">
	<path fill="#FFFFFF" d="M9.2,4.3V0H6.8v4.3L8,6L9.2,4.3z"/>
	<path fill="#FFFFFF" d="M6.8,11.7V16h2.4v-4.3L8,10L6.8,11.7z"/>
	<path fill="#00F2E6" d="M9.2,11.7l2.5,3.5l1.9-1.4l-2.5-3.5L9.2,9.6V11.7z"/>
	<path fill="#00F2E6" d="M6.8,4.3L4.3,0.8l-2,1.4l2.5,3.5l2,0.6V4.3z"/>
	<path fill="#00B9F1" d="M4.8,5.7L0.7,4.4L0,6.7L4.1,8L6,7.4L4.8,5.7z"/>
	<path fill="#00B9F1" d="M9.9,8.6l1.2,1.6l4.1,1.3L16,9.3L11.9,8L9.9,8.6z"/>
	<path fill="#D63AFF" d="M11.9,8L16,6.7l-0.7-2.3l-4.1,1.3L9.9,7.4L11.9,8z"/>
	<path fill="#D63AFF" d="M4.1,8L0,9.3l0.7,2.3l4.1-1.3L6,8.7L4.1,8z"/>
	<path fill="#FB015B" d="M4.8,10.3l-2.5,3.5l1.9,1.4l2.6-3.5v-2L4.8,10.3z"/>
	<path fill="#FB015B" d="M11.2,5.7l2.5-3.5l-1.9-1.4L9.2,4.3v2L11.2,5.7z"/>
</svg>
